<svg width="32" height="32" viewBox="0 0 32 32" fill="none" xmlns="http://www.w3.org/2000/svg">
<path d="M31.9997 9.13965H30.4697V21.3297H31.9997V9.13965Z" fill="black"/>
<path d="M30.4702 7.62256H28.9502V9.14256H30.4702V7.62256Z" fill="black"/>
<path d="M16.7608 21.331V9.14098H15.2408V7.62098H21.3308V12.191H22.8508V7.62098H28.9508V6.10098H22.8508V4.57098H27.4308V0.000976562H21.3308V6.10098H7.62078V7.62098H6.09078V9.14098H4.57078V21.331H3.05078V22.861H13.7108V24.381H15.2408V32.001H16.7608V22.861H21.3308V32.001H22.8508V22.861H30.4708V21.331H16.7608ZM22.8508 1.52098H25.9008V3.05098H22.8508V1.52098ZM15.2408 18.291H13.7108V19.811H15.2408V21.331H7.62078V12.191H15.2408V18.291Z" fill="black"/>
<path d="M13.7104 16.7612H12.1904V18.2912H13.7104V16.7612Z" fill="black"/>
<path d="M13.7099 24.3792H10.6699V25.8992H13.7099V24.3792Z" fill="black"/>
<path d="M10.6696 15.2392V13.7092H9.13965V15.2392H10.6596V16.7592H12.1896V15.2392H10.6696Z" fill="black"/>
<path d="M10.6696 25.8999H9.13965V27.4299H10.6696V25.8999Z" fill="black"/>
<path d="M9.13953 27.4309H1.51953V28.9509H9.13953V27.4309Z" fill="black"/>
<path d="M3.04953 22.8623H1.51953V24.3823H3.04953V22.8623Z" fill="black"/>
<path d="M1.52 24.3792H0V27.4292H1.52V24.3792Z" fill="black"/>
</svg>
