<svg width="329" height="388" viewBox="0 0 329 388" fill="none" xmlns="http://www.w3.org/2000/svg">
<path d="M327.412 235.529L182.68 161.679L0.295011 253.163L147.771 325.987L327.412 235.529Z" fill="#D2D2D2"/>
<path d="M299.957 232.853L171.501 167.308L10.6873 248.286L74.9153 281.059L107.029 297.445L119.14 303.709L139.732 303.709L159.245 303.709L179.347 293.586L219.55 273.342L299.957 232.853Z" fill="#808080"/>
<path d="M305.643 39.5819L263.38 18.0169L109.726 95.4393L151.989 117.004L305.643 39.5819Z" fill="#C0C0C0"/>
<path d="M327.706 235.823L147.968 326.931V391L327.706 299.892V235.823Z" fill="#C0C0C0"/>
<path d="M305.937 39.9888L152.674 117.676V284.708L305.937 207.021V39.9888Z" fill="#C0C0C0"/>
<path d="M282.109 83.291L174.737 137.288V237.586L282.109 183.59V83.291Z" fill="#0000B2"/>
<path d="M0.29417 253.163L147.968 326.049V390.118L0 316.145L0.29417 253.163Z" fill="#808080"/>
<path d="M109.431 95.3406L152.968 117.111L152.38 284.815L109.431 263.044V95.3406Z" fill="#808080"/>
<path d="M113.549 1L245.043 26.8628L109.431 94.7528L19.1208 47.1417L113.549 1Z" fill="#C0C0C0"/>
<path d="M16.768 133.841L107.667 224.655H108.843V96.2222L18.2389 48.3171L16.768 133.841Z" fill="#808080"/>
<path d="M25.5934 144.127L108.549 226.124V242.582L25.5934 202.025V144.127Z" fill="#808080"/>
<path d="M174.737 137.074V237.586L282.109 183.51" stroke="white" stroke-width="1.88797"/>
<path d="M327.706 300.48V235.529L290.052 216.426" stroke="white" stroke-width="1.88797"/>
<path d="M327.411 235.823L147.673 326.343" stroke="white" stroke-width="1.88797"/>
<path d="M162.676 345.446L198.271 327.52" stroke="white" stroke-width="1.88797"/>
<path d="M162.676 342.799L198.271 324.873" stroke="#808080" stroke-width="1.88797"/>
<path d="M305.937 208.197V39.7943M305.937 39.7943L152.38 117.383M305.937 39.7943L263.577 18.046L245.338 27.1742M109.726 95.0467L245.338 27.1742M245.338 27.1742L113.55 1L19.1212 47.1417" stroke="white" stroke-width="1.88797"/>
<path d="M306.231 207.021L152.38 284.904L109.137 262.567V242.876M109.137 226.418V95.6345L18.8273 47.7295L17.0623 133.841L25.8874 142.714M109.137 226.418L25.8874 142.714M109.137 226.418V242.876M25.8874 142.714V202.025L64.4236 220.935M109.137 242.876L64.4236 220.935M64.4236 220.935L0.588732 253.163V316.056L147.674 390.412L328 299.892" stroke="black" stroke-width="1.88797"/>
<ellipse cx="3.53004" cy="3.52675" rx="3.53004" ry="3.52675" transform="matrix(-1 0 0 1 314.763 265.506)" fill="#808080"/>
<ellipse cx="3.53004" cy="3.52675" rx="3.53004" ry="3.52675" transform="matrix(-1 0 0 1 315.351 264.331)" fill="#00F720"/>
<ellipse cx="3.53004" cy="3.52675" rx="3.53004" ry="3.52675" transform="matrix(-1 0 0 1 191.211 246.109)" fill="#808080"/>
<ellipse cx="3.53004" cy="3.52675" rx="3.53004" ry="3.52675" transform="matrix(-1 0 0 1 191.799 244.933)" fill="#00F720"/>
</svg>
